<svg width="70" height="11" viewBox="0 0 70 11" fill="none" xmlns="http://www.w3.org/2000/svg">
<g clip-path="url(#clip0)">
<path d="M5.35764 0.0841064C8.32197 0.0841064 10.6674 2.50612 10.6674 5.56729C10.6674 8.56117 8.2894 11 5.39022 11C2.47475 10.9832 0.113058 8.56117 0.0967705 5.55047C0.080483 2.5734 2.45846 0.100926 5.35764 0.0841064Z" fill="white"/>
<path d="M22.8667 2.37157C22.8667 4.72631 22.8505 7.08105 22.883 9.41897C22.883 9.82264 23.1925 10.2431 23.3391 10.63C22.8993 10.63 22.3455 10.63 21.9709 10.63C22.1012 10.159 22.3455 9.65444 22.3455 9.13304C22.3944 6.64374 22.3781 4.15444 22.3455 1.64833C22.3455 1.26148 22.1175 0.874628 21.9872 0.4205C22.7039 0.4205 23.5834 0.386861 24.4466 0.454139C24.6421 0.470959 24.8864 0.79053 25.0004 1.026C25.8311 2.99389 26.6454 4.9786 27.525 7.11469C27.8182 6.42509 28.0625 5.87004 28.2905 5.33181C28.8931 3.88533 29.4958 2.45567 30.0658 1.00918C30.2287 0.588696 30.4242 0.386861 30.8965 0.40368C31.5969 0.437319 32.2972 0.4205 32.851 0.4205C32.7207 0.891448 32.4764 1.34558 32.4601 1.81652C32.4275 4.22172 32.4112 6.62692 32.4601 9.04894C32.4764 9.58717 32.7207 10.1254 32.851 10.6636C31.9715 10.6636 30.8802 10.6636 29.9844 10.6636C30.0984 10.0413 30.3264 9.40215 30.3427 8.76301C30.3916 6.55964 30.359 4.35628 30.1798 2.10246C29.0071 4.92814 27.8344 7.75383 26.564 10.8486C25.3262 7.85475 24.186 5.09634 23.0296 2.32111C22.9645 2.33793 22.9156 2.35475 22.8667 2.37157Z" fill="white"/>
<path d="M61.7451 10.6468C61.0447 10.6468 60.2303 10.6468 59.3345 10.6468C59.3345 8.763 59.3508 6.91285 59.3182 5.07951C59.3019 4.6422 59.0739 4.2049 58.911 3.66667C59.6114 3.46483 60.4746 3.21254 61.3868 2.94343C61.4356 3.263 61.4682 3.54893 61.5171 3.85168C63.0318 2.4893 64.2534 2.5734 65.1492 3.91896C65.8658 3.58257 66.501 3.07798 67.2177 2.97707C68.4718 2.79205 69.2699 3.63303 69.3025 4.94496C69.3351 6.34098 69.2699 7.75383 69.3351 9.14985C69.3514 9.65444 69.5794 10.1422 69.726 10.6468C69.0745 10.6468 68.1949 10.6468 67.234 10.6468C67.234 8.99847 67.234 7.36698 67.234 5.7523C67.234 5.38227 67.2991 4.96178 67.1525 4.67584C66.9734 4.33945 66.5825 3.96942 66.2567 3.93578C65.7681 3.8685 65.4098 4.25535 65.4098 4.84404C65.4098 6.47554 65.3935 8.09022 65.4261 9.72172C65.4261 10.0413 65.6704 10.3609 65.8007 10.6804C65.0514 10.6804 64.2534 10.6804 63.3087 10.6804C63.3087 10.2936 63.3087 9.90673 63.3087 9.5367C63.3087 8.05658 63.3087 6.55964 63.2924 5.07951C63.2924 4.45719 63.0644 3.91896 62.3966 3.91896C61.6799 3.91896 61.4845 4.45719 61.4845 5.12997C61.5008 6.55964 61.4682 7.9893 61.5008 9.41896C61.4845 9.80581 61.6474 10.2095 61.7451 10.6468Z" fill="white"/>
<path d="M16.3843 5.34862C16.3843 7.01375 16.1726 8.40978 15.3745 9.63761C14.4624 11.0673 13.1594 11.0673 12.231 9.68807C10.8628 7.6529 10.8303 3.59938 12.1495 1.51375C13.1431 -0.0336473 14.5601 -0.0168278 15.4722 1.59785C16.1726 2.80886 16.4006 4.15443 16.3843 5.34862Z" fill="white"/>
<path d="M44.3989 3.12844C44.6106 1.61468 44.5454 1.42966 43.5682 0.874618C44.5454 0.588685 45.4738 0.302752 46.5162 0C46.5488 0.370031 46.5814 0.655963 46.5814 0.958716C46.5814 3.70031 46.5651 6.4419 46.5977 9.18349C46.5977 9.67125 46.8583 10.159 46.9886 10.6468C46.3208 10.6468 45.4575 10.6468 44.5454 10.6468C44.5129 10.3777 44.4803 10.1254 44.4477 9.90673C43.9428 10.2263 43.4868 10.63 42.9493 10.815C42.0697 11.1346 41.0762 10.6468 40.4899 9.78899C39.4149 8.17431 39.6429 5.3318 40.9785 3.93578C41.9232 2.90979 43.0796 2.72477 44.3989 3.12844ZM44.4803 6.57645C44.4803 5.80275 44.5129 5.01223 44.464 4.23853C44.4477 3.9526 44.236 3.54893 44.008 3.46483C43.7311 3.3471 43.3076 3.41437 43.047 3.58257C42.7701 3.75076 42.5584 4.1208 42.4444 4.44037C41.972 5.78593 41.9394 7.18196 42.4118 8.54434C42.5258 8.88073 42.705 9.25076 42.9656 9.43578C43.2424 9.6208 43.6985 9.72171 43.9754 9.6208C44.2034 9.5367 44.4314 9.08257 44.4477 8.77982C44.5291 8.02294 44.4803 7.29969 44.4803 6.57645Z" fill="white"/>
<path d="M58.2595 10.6804C57.6732 10.6804 56.9077 10.6804 56.1585 10.6804C56.0444 10.6804 55.9467 10.6636 55.8001 10.6468C55.7513 10.3777 55.7024 10.1254 55.6047 9.51988C55.4092 9.87309 55.3441 10.0917 55.1975 10.2263C54.5297 10.8654 53.7642 11.0505 52.8847 10.7309C52.0051 10.3945 51.7445 9.65444 51.712 8.81346C51.6631 7.55199 51.7283 6.29052 51.6794 5.02906C51.6631 4.62539 51.4188 4.22172 51.2396 3.70031C51.9237 3.49848 52.8032 3.22936 53.8293 2.90979C53.8293 4.0367 53.8293 5.07952 53.8293 6.12233C53.8293 6.92967 53.8293 7.75383 53.8293 8.56117C53.8293 9.25077 54.1062 9.72172 54.8229 9.68808C55.4907 9.67126 55.7513 9.23395 55.735 8.56117C55.7187 7.41744 55.7676 6.25688 55.7187 5.11315C55.7024 4.65903 55.507 4.2049 55.3767 3.66667C56.077 3.44802 56.8914 3.21254 57.8198 2.92661C57.8198 3.51529 57.8198 4.0367 57.8198 4.54129C57.8198 6.10551 57.7872 7.66973 57.8524 9.25077C57.8361 9.72172 58.0967 10.1758 58.2595 10.6804Z" fill="white"/>
<path d="M39.3497 6.20642C37.9001 6.20642 36.4505 6.20642 35.0172 6.20642C34.8869 7.50153 35.4733 8.61162 36.4343 9.04893C37.3952 9.48624 38.1445 9.2003 39.2031 7.95566C39.2031 9.31804 38.3236 10.4618 36.988 10.815C35.799 11.1346 34.3983 10.5459 33.7957 9.38532C32.9813 7.83792 32.965 6.20642 33.7142 4.6422C34.382 3.24618 35.8479 2.62385 37.2812 3.0107C38.6331 3.38073 39.3497 4.45719 39.3497 6.20642ZM35.0661 5.76911C35.8805 5.76911 36.6949 5.76911 37.5092 5.76911C37.5907 4.22171 37.1835 3.33027 36.4343 3.33027C35.6199 3.31345 35.0987 4.25535 35.0661 5.76911Z" fill="white"/>
<path d="M50.1972 2.94342C50.1972 5.11315 50.1646 7.16513 50.2135 9.2003C50.2298 9.68807 50.4741 10.1758 50.6044 10.6636C49.9366 10.6636 49.0734 10.6636 48.0961 10.6636C48.0961 8.79663 48.1287 6.94648 48.0798 5.11315C48.0636 4.67584 47.803 4.25535 47.6238 3.71712C48.3079 3.49847 49.1874 3.22935 50.1972 2.94342Z" fill="white"/>
<path d="M17.7525 10.2263C17.6059 9.92354 17.3941 9.62078 17.329 9.30121C16.7263 6.81192 16.7426 4.32262 17.329 1.83332C17.4104 1.51375 17.6873 1.26146 17.8665 0.975525C18.0619 1.24464 18.3714 1.49693 18.4365 1.79968C19.0229 4.3058 19.0066 6.84556 18.4365 9.35167C18.3714 9.65442 18.1597 9.92354 18.0131 10.2095C17.9316 10.2263 17.8502 10.2263 17.7525 10.2263Z" fill="white"/>
<path d="M50.2135 1.24465C50.2135 1.95108 49.7249 2.45566 49.0571 2.45566C48.3893 2.45566 47.9007 1.91744 47.9007 1.22784C47.917 0.555052 48.3567 0.100924 49.0245 0.0841041C49.7412 0.050465 50.2135 0.521413 50.2135 1.24465Z" fill="white"/>
</g>
<defs>
<clipPath id="clip0">
<rect width="69.6129" height="11" fill="white" transform="translate(0.0967712)"/>
</clipPath>
</defs>
</svg>
